Release Title: High School Musical 2006

Release Date: 24th September 2006 (India)

Blu-Ray Release Date: 17th February 2009

Film Length: 1:37:54

Tagline: This School Rocks Like No Other!

Storyline: Troy Bolton and Gabriella Montez are two totally different teenagers who meet at a party while singing karaoke on New Years Eve. One week later Troy goes back to his high school, East High, in New Mexico to find that Gabriella is a new student there. They quickly become close friends and accidentally audition for the school musical. After getting a callback, drama queen, Sharpay Evans and her sidekick brother, Ryan are furious. Then Chad, Troy\\\'s best friend and basketball teammate, and Taylor, Gabriella\\\'s new friend on the decathlon team must find out a way to make Gabriella hate Troy. After seeing that Troy and Gabriella sad about not talking, they soon support their choices and let them \\\"break free\\\".

Zac Efron  ...  Troy Bolton
Vanessa Hudgens  ...  Gabriella Montez (as Vanessa Anne Hudgens)
Ashley Tisdale  ...  Sharpay Evans
Lucas Grabeel  ...  Ryan Evans
Alyson Reed  ...  Ms. Darbus
Corbin Bleu  ...  Chad Danforth
Monique Coleman  ...  Taylor McKessie
Olesya Rulin  ...  Kelsi Nielsen
Chris Warren Jr.  ...  Zeke Baylor
Bart Johnson  ...  Coach Jack Bolton
Ryne Sanborn  ...  Jason Cross
Socorro Herrera  ...  Mrs. Montez
Joey Miyashima  ...  Principal Matsui
Dutch Whitlock  ...  Skater Dude #1
Ryan Templeman  ...  Skater Dude #2

Format                           : Matroska
File size                        : 2.32 GiB
Duration                         : 1h 37mn
Overall bit rate                 : 3 388 Kbps
Movie name                       : High.School.Musical.2006.720p.Dual.Audio.[Eng-Hindi]-Alan
Encoded date                     : UTC 2011-03-22 10:22:46
Writing application              : mkvmerge v4.4.0 (\\\'Die Wiederkehr\\\') built on Oct 31 2010 21:52:48
Writing library                  : libebml v1.0.0 + libmatroska v1.0.0
Ripper			      : Alan

Video
ID                               : 1
Format                           : AVC
Format/Info                      : Advanced Video Codec
Format profile                   : High@L4.1
Format settings, CABAC           : Yes
Format settings, ReFrames        : 4 frames
Muxing mode                      : Header stripping
Codec ID                         : V_MPEG4/ISO/AVC
Duration                         : 1h 37mn
Bit rate                         : 2 746 Kbps
Width                            : 1 280 pixels
Height                           : 720 pixels
Display aspect ratio             : 16:9
Frame rate                       : 23.976 fps
Color space                      : YUV
Chroma subsampling               : 4:2:0
Bit depth                        : 8 bits
Scan type                        : Progressive
Bits/(Pixel*Frame)               : 0.124
Stream size                      : 1.83 GiB (79%)
Writing library                  : x264 core 98 r1649 c54c47d
Encoding settings                : cabac=1 / ref=4 / deblock=1:-1:-1 / analyse=0x3:0x113
Language                         : English

Audio #1
ID                               : 2
Format                           : AC-3
Format/Info                      : Audio Coding 3
Mode extension                   : CM (complete main)
Muxing mode                      : Header stripping
Codec ID                         : A_AC3
Duration                         : 1h 37mn
Bit rate mode                    : Constant
Bit rate                         : 448 Kbps
Channel(s)                       : 6 channels
Channel positions                : Front: L C R, Side: L R, LFE
Sampling rate                    : 48.0 KHz
Bit depth                        : 16 bits
Compression mode                 : Lossy
Stream size                      : 314 MiB (13%)
Title                            : Track 1
Language                         : English

Audio #2
ID                               : 4
Format                           : AC-3
Format/Info                      : Audio Coding 3
Mode extension                   : CM (complete main)
Muxing mode                      : Header stripping
Codec ID                         : A_AC3
Duration                         : 1h 37mn
Bit rate mode                    : Constant
Bit rate                         : 192 Kbps
Channel(s)                       : 2 channels
Channel positions                : Front: L R
Sampling rate                    : 48.0 KHz
Bit depth                        : 16 bits
Compression mode                 : Lossy
Stream size                      : 134 MiB (6%)
Title                            : Alan
Language                         : Hindi

Text
ID                               : 3
Format                           : UTF-8
Codec ID                         : S_TEXT/UTF8
Codec ID/Info                    : UTF-8 Plain Text
Language                         : English
 
http://img820.imageshack.us/i/vlcsnap2011032219h26m16.png 
http://img830.imageshack.us/i/vlcsnap2011032219h27m35.png 
http://img88.imageshack.us/i/vlcsnap2011032219h28m22.png 
http://img59.imageshack.us/i/vlcsnap2011032219h29m13.png 
http://img843.imageshack.us/i/vlcsnap2011032219h29m19.png 
http://img824.imageshack.us/i/vlcsnap2011032219h29m29.png 
http://img858.imageshack.us/i/vlcsnap2011032219h30m24.png 
http://img816.imageshack.us/i/vlcsnap2011032219h30m55.png